<svg width="165" xmlns="http://www.w3.org/2000/svg" height="165" fill="none"><g class="fills"><rect rx="0" ry="0" width="165" height="165" class="frame-background"/></g><g style="fill: rgb(0, 0, 0);" class="frame-children"><defs><linearGradient id="a" x1="-.257" y1="-.031" x2="1.088" y2=".819"><stop offset="0" stop-color="#00ff18" stop-opacity=".645"/><stop offset="1" stop-color="#00ff0a" stop-opacity=".32"/></linearGradient><pattern patternUnits="userSpaceOnUse" x="26.022" y="20.625" width="112.956" height="21.01" id="b"><rect width="112.956" height="21.01" style="fill: url(&quot;#a&quot;);"/></pattern></defs><path d="M37.861 27.83a20.623 20.623 0 0 1 15.661-7.205h57.956a20.623 20.623 0 0 1 15.661 7.205l11.839 13.805a31.118 31.118 0 0 0-4.915-.385H30.938c-1.671 0-3.314.138-4.916.385L37.861 27.83Z" fill="url(#b)" class="fills"/><defs><linearGradient id="c" x1="-.257" y1="-.031" x2="1.088" y2=".819"><stop offset="0" stop-color="#00ff18" stop-opacity=".645"/><stop offset="1" stop-color="#00ff0a" stop-opacity=".32"/></linearGradient><pattern patternUnits="userSpaceOnUse" x="10.313" y="51.563" width="144.375" height="92.813" id="d"><rect width="144.375" height="92.813" style="fill: url(&quot;#c&quot;);"/></pattern></defs><path d="M10.313 72.188c0-11.391 9.234-20.625 20.625-20.625h103.125c11.39 0 20.625 9.234 20.625 20.625 0 11.39-9.235 20.625-20.625 20.625H30.938c-11.391 0-20.625-9.235-20.625-20.625Zm103.125 0a5.157 5.157 0 1 1-10.314-.002 5.157 5.157 0 0 1 10.314.002Zm15.468 5.156a5.157 5.157 0 1 0 0-10.314 5.157 5.157 0 0 0 0 10.314Zm-97.968 25.781c-11.391 0-20.625 9.234-20.625 20.625s9.234 20.625 20.625 20.625h103.125c11.39 0 20.625-9.234 20.625-20.625s-9.235-20.625-20.625-20.625H30.938Zm77.343 25.781a5.156 5.156 0 1 0 .001-10.313 5.156 5.156 0 0 0-.001 10.313Zm25.782-5.156a5.156 5.156 0 1 1-10.313 0 5.156 5.156 0 0 1 10.313 0Z" fill="url(#d)" clip-rule="evenodd" fill-rule="evenodd" class="fills"/></g></svg>